<mxfile host="Electron" modified="2024-02-26T21:06:41.320Z" agent="Mozilla/5.0 (Windows NT 10.0; Win64; x64) AppleWebKit/537.36 (KHTML, like Gecko) draw.io/22.1.2 Chrome/114.0.5735.289 Electron/25.9.4 Safari/537.36" etag="TuFQUKeZbR5FdvBLGldH" version="22.1.2" type="device">
  <diagram name="Page-1" id="TytDiJQe5iat0e3gnEkT">
    <mxGraphModel dx="1036" dy="606" grid="0" gridSize="10" guides="1" tooltips="1" connect="1" arrows="1" fold="1" page="1" pageScale="1" pageWidth="827" pageHeight="1169" math="0" shadow="0">
      <root>
        <mxCell id="0" />
        <mxCell id="1" parent="0" />
        <mxCell id="RgfAn03k50jcUWAhFGxA-1" value="User:" style="shape=umlLifeline;perimeter=lifelinePerimeter;whiteSpace=wrap;html=1;container=1;dropTarget=0;collapsible=0;recursiveResize=0;outlineConnect=0;portConstraint=eastwest;newEdgeStyle={&quot;curved&quot;:0,&quot;rounded&quot;:0};participant=umlActor;fillColor=#dae8fc;strokeColor=#6c8ebf;" parent="1" vertex="1">
          <mxGeometry x="150" y="50" width="25" height="667" as="geometry" />
        </mxCell>
        <mxCell id="RgfAn03k50jcUWAhFGxA-2" value="System:&amp;nbsp;" style="shape=umlLifeline;perimeter=lifelinePerimeter;whiteSpace=wrap;html=1;container=1;dropTarget=0;collapsible=0;recursiveResize=0;outlineConnect=0;portConstraint=eastwest;newEdgeStyle={&quot;curved&quot;:0,&quot;rounded&quot;:0};fillColor=#dae8fc;strokeColor=#6c8ebf;" parent="1" vertex="1">
          <mxGeometry x="364" y="50" width="100" height="682" as="geometry" />
        </mxCell>
        <mxCell id="RgfAn03k50jcUWAhFGxA-5" value="" style="html=1;points=[[0,0,0,0,5],[0,1,0,0,-5],[1,0,0,0,5],[1,1,0,0,-5]];perimeter=orthogonalPerimeter;outlineConnect=0;targetShapes=umlLifeline;portConstraint=eastwest;newEdgeStyle={&quot;curved&quot;:0,&quot;rounded&quot;:0};fillColor=#dae8fc;strokeColor=#6c8ebf;" parent="RgfAn03k50jcUWAhFGxA-2" vertex="1">
          <mxGeometry x="45" y="68" width="10" height="568" as="geometry" />
        </mxCell>
        <mxCell id="RgfAn03k50jcUWAhFGxA-3" value="Database:" style="shape=umlLifeline;perimeter=lifelinePerimeter;whiteSpace=wrap;html=1;container=1;dropTarget=0;collapsible=0;recursiveResize=0;outlineConnect=0;portConstraint=eastwest;newEdgeStyle={&quot;curved&quot;:0,&quot;rounded&quot;:0};fillColor=#dae8fc;strokeColor=#6c8ebf;" parent="1" vertex="1">
          <mxGeometry x="615" y="50" width="100" height="681" as="geometry" />
        </mxCell>
        <mxCell id="RgfAn03k50jcUWAhFGxA-8" value="" style="html=1;points=[[0,0,0,0,5],[0,1,0,0,-5],[1,0,0,0,5],[1,1,0,0,-5]];perimeter=orthogonalPerimeter;outlineConnect=0;targetShapes=umlLifeline;portConstraint=eastwest;newEdgeStyle={&quot;curved&quot;:0,&quot;rounded&quot;:0};fillColor=#dae8fc;strokeColor=#6c8ebf;" parent="RgfAn03k50jcUWAhFGxA-3" vertex="1">
          <mxGeometry x="45" y="83" width="10" height="54" as="geometry" />
        </mxCell>
        <mxCell id="RgfAn03k50jcUWAhFGxA-9" value="Search today&lt;font size=&quot;1&quot;&gt;,s shift&lt;br&gt;by user id (which got&amp;nbsp;&lt;br&gt;by logged in phone)&lt;br&gt;&lt;/font&gt;" style="html=1;align=left;spacingLeft=2;endArrow=block;rounded=0;edgeStyle=orthogonalEdgeStyle;curved=0;rounded=0;" parent="RgfAn03k50jcUWAhFGxA-3" source="RgfAn03k50jcUWAhFGxA-8" target="RgfAn03k50jcUWAhFGxA-8" edge="1">
          <mxGeometry x="0.386" y="6" relative="1" as="geometry">
            <mxPoint x="54" y="159" as="sourcePoint" />
            <Array as="points">
              <mxPoint x="76" y="94" />
              <mxPoint x="76" y="121" />
            </Array>
            <mxPoint as="offset" />
          </mxGeometry>
        </mxCell>
        <mxCell id="l5vel6gf1bmC2oDWLF6o-8" value="" style="html=1;points=[[0,0,0,0,5],[0,1,0,0,-5],[1,0,0,0,5],[1,1,0,0,-5]];perimeter=orthogonalPerimeter;outlineConnect=0;targetShapes=umlLifeline;portConstraint=eastwest;newEdgeStyle={&quot;curved&quot;:0,&quot;rounded&quot;:0};fillColor=#dae8fc;strokeColor=#6c8ebf;" parent="RgfAn03k50jcUWAhFGxA-3" vertex="1">
          <mxGeometry x="45" y="244" width="10" height="47" as="geometry" />
        </mxCell>
        <mxCell id="l5vel6gf1bmC2oDWLF6o-9" value="Search for devices&amp;nbsp;&lt;br&gt;by unit id" style="html=1;align=left;spacingLeft=2;endArrow=block;rounded=0;edgeStyle=orthogonalEdgeStyle;curved=0;rounded=0;" parent="RgfAn03k50jcUWAhFGxA-3" source="l5vel6gf1bmC2oDWLF6o-8" target="l5vel6gf1bmC2oDWLF6o-8" edge="1">
          <mxGeometry relative="1" as="geometry">
            <mxPoint x="50" y="173" as="sourcePoint" />
            <Array as="points">
              <mxPoint x="76" y="252" />
              <mxPoint x="76" y="276" />
            </Array>
          </mxGeometry>
        </mxCell>
        <mxCell id="l5vel6gf1bmC2oDWLF6o-13" value="" style="html=1;points=[[0,0,0,0,5],[0,1,0,0,-5],[1,0,0,0,5],[1,1,0,0,-5]];perimeter=orthogonalPerimeter;outlineConnect=0;targetShapes=umlLifeline;portConstraint=eastwest;newEdgeStyle={&quot;curved&quot;:0,&quot;rounded&quot;:0};fillColor=#dae8fc;strokeColor=#6c8ebf;" parent="RgfAn03k50jcUWAhFGxA-3" vertex="1">
          <mxGeometry x="45" y="351" width="10" height="47" as="geometry" />
        </mxCell>
        <mxCell id="l5vel6gf1bmC2oDWLF6o-14" value="Search for a streaming&lt;br&gt;by patient id" style="html=1;align=left;spacingLeft=2;endArrow=block;rounded=0;edgeStyle=orthogonalEdgeStyle;curved=0;rounded=0;" parent="RgfAn03k50jcUWAhFGxA-3" source="l5vel6gf1bmC2oDWLF6o-13" target="l5vel6gf1bmC2oDWLF6o-13" edge="1">
          <mxGeometry x="-0.009" relative="1" as="geometry">
            <mxPoint x="50" y="280" as="sourcePoint" />
            <Array as="points">
              <mxPoint x="74" y="359" />
              <mxPoint x="74" y="383" />
            </Array>
            <mxPoint as="offset" />
          </mxGeometry>
        </mxCell>
        <mxCell id="l5vel6gf1bmC2oDWLF6o-19" value="" style="html=1;points=[[0,0,0,0,5],[0,1,0,0,-5],[1,0,0,0,5],[1,1,0,0,-5]];perimeter=orthogonalPerimeter;outlineConnect=0;targetShapes=umlLifeline;portConstraint=eastwest;newEdgeStyle={&quot;curved&quot;:0,&quot;rounded&quot;:0};fillColor=#dae8fc;strokeColor=#6c8ebf;" parent="RgfAn03k50jcUWAhFGxA-3" vertex="1">
          <mxGeometry x="45" y="478" width="10" height="47" as="geometry" />
        </mxCell>
        <mxCell id="l5vel6gf1bmC2oDWLF6o-22" value="Get the record(patient ID)" style="html=1;verticalAlign=bottom;endArrow=block;curved=0;rounded=0;" parent="RgfAn03k50jcUWAhFGxA-3" target="l5vel6gf1bmC2oDWLF6o-19" edge="1">
          <mxGeometry width="80" relative="1" as="geometry">
            <mxPoint x="-195" y="482" as="sourcePoint" />
            <mxPoint x="47" y="482" as="targetPoint" />
          </mxGeometry>
        </mxCell>
        <mxCell id="l5vel6gf1bmC2oDWLF6o-20" value="Search for the record&lt;br&gt;by patient id" style="html=1;align=left;spacingLeft=2;endArrow=block;rounded=0;edgeStyle=orthogonalEdgeStyle;curved=0;rounded=0;" parent="RgfAn03k50jcUWAhFGxA-3" source="l5vel6gf1bmC2oDWLF6o-19" target="l5vel6gf1bmC2oDWLF6o-19" edge="1">
          <mxGeometry x="-0.009" relative="1" as="geometry">
            <mxPoint x="50" y="407" as="sourcePoint" />
            <Array as="points">
              <mxPoint x="74" y="486" />
              <mxPoint x="74" y="510" />
            </Array>
            <mxPoint as="offset" />
          </mxGeometry>
        </mxCell>
        <mxCell id="RgfAn03k50jcUWAhFGxA-4" value="open Home(logged in user)" style="html=1;verticalAlign=bottom;endArrow=block;curved=0;rounded=0;fillColor=#f8cecc;strokeColor=#b85450;" parent="1" edge="1">
          <mxGeometry width="80" relative="1" as="geometry">
            <mxPoint x="162" y="119" as="sourcePoint" />
            <mxPoint x="409" y="119" as="targetPoint" />
          </mxGeometry>
        </mxCell>
        <mxCell id="RgfAn03k50jcUWAhFGxA-6" value="Get the shift(role,logged in phone)" style="html=1;verticalAlign=bottom;endArrow=block;curved=0;rounded=0;" parent="1" edge="1">
          <mxGeometry width="80" relative="1" as="geometry">
            <mxPoint x="420" y="133" as="sourcePoint" />
            <mxPoint x="661" y="133" as="targetPoint" />
          </mxGeometry>
        </mxCell>
        <mxCell id="l5vel6gf1bmC2oDWLF6o-1" value="Not avaliable" style="html=1;verticalAlign=bottom;endArrow=open;dashed=1;endSize=8;curved=0;rounded=0;" parent="1" edge="1">
          <mxGeometry relative="1" as="geometry">
            <mxPoint x="660" y="184" as="sourcePoint" />
            <mxPoint x="419" y="184" as="targetPoint" />
          </mxGeometry>
        </mxCell>
        <mxCell id="l5vel6gf1bmC2oDWLF6o-2" value="Diplay nothing" style="html=1;verticalAlign=bottom;endArrow=open;dashed=1;endSize=8;curved=0;rounded=0;" parent="1" edge="1">
          <mxGeometry relative="1" as="geometry">
            <mxPoint x="409" y="199" as="sourcePoint" />
            <mxPoint x="162.16666666666652" y="199" as="targetPoint" />
          </mxGeometry>
        </mxCell>
        <mxCell id="l5vel6gf1bmC2oDWLF6o-3" value="&amp;nbsp;Avaliable" style="html=1;verticalAlign=bottom;endArrow=open;dashed=1;endSize=8;curved=0;rounded=0;" parent="1" source="RgfAn03k50jcUWAhFGxA-3" edge="1">
          <mxGeometry relative="1" as="geometry">
            <mxPoint x="661.5" y="221" as="sourcePoint" />
            <mxPoint x="419" y="221" as="targetPoint" />
          </mxGeometry>
        </mxCell>
        <mxCell id="l5vel6gf1bmC2oDWLF6o-4" value="Diplay units" style="html=1;verticalAlign=bottom;endArrow=open;dashed=1;endSize=8;curved=0;rounded=0;" parent="1" edge="1">
          <mxGeometry relative="1" as="geometry">
            <mxPoint x="409" y="238" as="sourcePoint" />
            <mxPoint x="162.16666666666652" y="238" as="targetPoint" />
          </mxGeometry>
        </mxCell>
        <mxCell id="l5vel6gf1bmC2oDWLF6o-5" value="open a unit&amp;nbsp;" style="html=1;verticalAlign=bottom;endArrow=block;curved=0;rounded=0;fillColor=#f8cecc;strokeColor=#b85450;" parent="1" edge="1">
          <mxGeometry x="-0.0007" width="80" relative="1" as="geometry">
            <mxPoint x="162.16666666666652" y="278" as="sourcePoint" />
            <mxPoint x="409" y="278" as="targetPoint" />
            <mxPoint as="offset" />
          </mxGeometry>
        </mxCell>
        <mxCell id="l5vel6gf1bmC2oDWLF6o-6" value="Get all devices in choosen unit (unit ID)" style="html=1;verticalAlign=bottom;endArrow=block;curved=0;rounded=0;" parent="1" target="l5vel6gf1bmC2oDWLF6o-8" edge="1">
          <mxGeometry width="80" relative="1" as="geometry">
            <mxPoint x="421" y="296" as="sourcePoint" />
            <mxPoint x="662" y="296" as="targetPoint" />
          </mxGeometry>
        </mxCell>
        <mxCell id="l5vel6gf1bmC2oDWLF6o-10" value="Return devices" style="html=1;verticalAlign=bottom;endArrow=open;dashed=1;endSize=8;curved=0;rounded=0;" parent="1" edge="1">
          <mxGeometry relative="1" as="geometry">
            <mxPoint x="660" y="337" as="sourcePoint" />
            <mxPoint x="419" y="337" as="targetPoint" />
          </mxGeometry>
        </mxCell>
        <mxCell id="l5vel6gf1bmC2oDWLF6o-11" value="Diplay streaming" style="html=1;verticalAlign=bottom;endArrow=open;dashed=1;endSize=8;curved=0;rounded=0;" parent="1" edge="1">
          <mxGeometry relative="1" as="geometry">
            <mxPoint x="407.83" y="350" as="sourcePoint" />
            <mxPoint x="160.99666666666653" y="350" as="targetPoint" />
          </mxGeometry>
        </mxCell>
        <mxCell id="l5vel6gf1bmC2oDWLF6o-12" value="Choose a patient" style="html=1;verticalAlign=bottom;endArrow=block;curved=0;rounded=0;fillColor=#f8cecc;strokeColor=#b85450;" parent="1" edge="1">
          <mxGeometry x="-0.0007" width="80" relative="1" as="geometry">
            <mxPoint x="162.99666666666653" y="387" as="sourcePoint" />
            <mxPoint x="409.83" y="387" as="targetPoint" />
            <mxPoint as="offset" />
          </mxGeometry>
        </mxCell>
        <mxCell id="l5vel6gf1bmC2oDWLF6o-15" value="Get streaming&amp;nbsp; (patient ID)" style="html=1;verticalAlign=bottom;endArrow=block;curved=0;rounded=0;" parent="1" edge="1">
          <mxGeometry width="80" relative="1" as="geometry">
            <mxPoint x="420" y="403" as="sourcePoint" />
            <mxPoint x="659" y="403" as="targetPoint" />
          </mxGeometry>
        </mxCell>
        <mxCell id="l5vel6gf1bmC2oDWLF6o-16" value="Return a streaming" style="html=1;verticalAlign=bottom;endArrow=open;dashed=1;endSize=8;curved=0;rounded=0;" parent="1" edge="1">
          <mxGeometry x="0.0028" relative="1" as="geometry">
            <mxPoint x="659" y="447" as="sourcePoint" />
            <mxPoint x="418" y="447" as="targetPoint" />
            <mxPoint as="offset" />
          </mxGeometry>
        </mxCell>
        <mxCell id="l5vel6gf1bmC2oDWLF6o-17" value="Display streaming of choosen patient" style="html=1;verticalAlign=bottom;endArrow=open;dashed=1;endSize=8;curved=0;rounded=0;" parent="1" edge="1">
          <mxGeometry x="0.0028" relative="1" as="geometry">
            <mxPoint x="408.83" y="465" as="sourcePoint" />
            <mxPoint x="161.99666666666653" y="465" as="targetPoint" />
            <mxPoint as="offset" />
          </mxGeometry>
        </mxCell>
        <mxCell id="l5vel6gf1bmC2oDWLF6o-18" value="Press &quot;vital sign record&quot;" style="html=1;verticalAlign=bottom;endArrow=block;curved=0;rounded=0;fillColor=#f8cecc;strokeColor=#b85450;" parent="1" edge="1">
          <mxGeometry x="-0.0045" width="80" relative="1" as="geometry">
            <mxPoint x="162.99666666666653" y="519" as="sourcePoint" />
            <mxPoint x="409.83" y="519" as="targetPoint" />
            <mxPoint as="offset" />
          </mxGeometry>
        </mxCell>
        <mxCell id="l5vel6gf1bmC2oDWLF6o-23" value="Not avaliable" style="html=1;verticalAlign=bottom;endArrow=open;dashed=1;endSize=8;curved=0;rounded=0;" parent="1" edge="1">
          <mxGeometry relative="1" as="geometry">
            <mxPoint x="660" y="566" as="sourcePoint" />
            <mxPoint x="419" y="566" as="targetPoint" />
          </mxGeometry>
        </mxCell>
        <mxCell id="l5vel6gf1bmC2oDWLF6o-24" value="&amp;nbsp;Avaliable" style="html=1;verticalAlign=bottom;endArrow=open;dashed=1;endSize=8;curved=0;rounded=0;" parent="1" edge="1">
          <mxGeometry relative="1" as="geometry">
            <mxPoint x="663.5" y="604" as="sourcePoint" />
            <mxPoint x="418" y="604" as="targetPoint" />
          </mxGeometry>
        </mxCell>
        <mxCell id="l5vel6gf1bmC2oDWLF6o-25" value="Dsiplay nothing" style="html=1;verticalAlign=bottom;endArrow=open;dashed=1;endSize=8;curved=0;rounded=0;" parent="1" edge="1">
          <mxGeometry relative="1" as="geometry">
            <mxPoint x="407.67" y="579" as="sourcePoint" />
            <mxPoint x="161.00333333333336" y="579" as="targetPoint" />
          </mxGeometry>
        </mxCell>
        <mxCell id="l5vel6gf1bmC2oDWLF6o-26" value="Display the record" style="html=1;verticalAlign=bottom;endArrow=open;dashed=1;endSize=8;curved=0;rounded=0;" parent="1" edge="1">
          <mxGeometry relative="1" as="geometry">
            <mxPoint x="407.67" y="615" as="sourcePoint" />
            <mxPoint x="161.00333333333336" y="615" as="targetPoint" />
          </mxGeometry>
        </mxCell>
        <mxCell id="l5vel6gf1bmC2oDWLF6o-37" value="Display personal info of choosen patient" style="html=1;verticalAlign=bottom;endArrow=open;dashed=1;endSize=8;curved=0;rounded=0;" parent="1" edge="1">
          <mxGeometry x="0.0028" relative="1" as="geometry">
            <mxPoint x="407.95" y="486" as="sourcePoint" />
            <mxPoint x="160.99761904761903" y="486" as="targetPoint" />
            <mxPoint as="offset" />
          </mxGeometry>
        </mxCell>
        <mxCell id="l5vel6gf1bmC2oDWLF6o-38" value="Shift Availability" style="shape=umlFrame;whiteSpace=wrap;html=1;pointerEvents=0;fillColor=#99CCFF;strokeColor=#000000;" parent="1" vertex="1">
          <mxGeometry x="94" y="151" width="500" height="103" as="geometry" />
        </mxCell>
        <mxCell id="l5vel6gf1bmC2oDWLF6o-39" value="" style="endArrow=none;html=1;rounded=0;entryX=-0.001;entryY=0.53;entryDx=0;entryDy=0;entryPerimeter=0;exitX=0.998;exitY=0.497;exitDx=0;exitDy=0;exitPerimeter=0;" parent="1" target="l5vel6gf1bmC2oDWLF6o-38" edge="1">
          <mxGeometry width="50" height="50" relative="1" as="geometry">
            <mxPoint x="594.002" y="205.00100000000003" as="sourcePoint" />
            <mxPoint x="100.99" y="205.00100000000003" as="targetPoint" />
          </mxGeometry>
        </mxCell>
        <mxCell id="l5vel6gf1bmC2oDWLF6o-40" value="Record Availability" style="shape=umlFrame;whiteSpace=wrap;html=1;pointerEvents=0;fillColor=#99CCFF;strokeColor=#000000;" parent="1" vertex="1">
          <mxGeometry x="94" y="541" width="500" height="87" as="geometry" />
        </mxCell>
        <mxCell id="l5vel6gf1bmC2oDWLF6o-41" value="" style="endArrow=none;html=1;rounded=0;entryX=0.002;entryY=0.451;entryDx=0;entryDy=0;entryPerimeter=0;exitX=1;exitY=0.437;exitDx=0;exitDy=0;exitPerimeter=0;" parent="1" edge="1">
          <mxGeometry width="50" height="50" relative="1" as="geometry">
            <mxPoint x="594" y="586.9990000000003" as="sourcePoint" />
            <mxPoint x="95" y="588.2170000000001" as="targetPoint" />
          </mxGeometry>
        </mxCell>
      </root>
    </mxGraphModel>
  </diagram>
</mxfile>
